<mxfile host="app.diagrams.net" modified="2022-01-08T13:00:14.507Z" agent="5.0 (Windows NT 10.0; Win64; x64) AppleWebKit/537.36 (KHTML, like Gecko) Chrome/97.0.4692.71 Safari/537.36" etag="JTjDWxJMN9WRzOsazner" version="16.2.4" type="github">
  <diagram id="prtHgNgQTEPvFCAcTncT" name="Page-1">
    <mxGraphModel dx="2889" dy="1154" grid="1" gridSize="10" guides="1" tooltips="1" connect="1" arrows="1" fold="1" page="1" pageScale="1" pageWidth="827" pageHeight="1169" math="0" shadow="0">
      <root>
        <mxCell id="0" />
        <mxCell id="1" parent="0" />
        <mxCell id="8me5k0RuEljqpgm1LnXD-1" value="运营管理员" style="shape=umlActor;verticalLabelPosition=bottom;verticalAlign=top;html=1;" vertex="1" parent="1">
          <mxGeometry x="110" y="380" width="30" height="60" as="geometry" />
        </mxCell>
        <mxCell id="8me5k0RuEljqpgm1LnXD-2" value="矿场管理员" style="shape=umlActor;verticalLabelPosition=bottom;verticalAlign=top;html=1;" vertex="1" parent="1">
          <mxGeometry x="310" y="380" width="30" height="60" as="geometry" />
        </mxCell>
        <mxCell id="8me5k0RuEljqpgm1LnXD-5" value="项目管理员" style="shape=umlActor;verticalLabelPosition=bottom;verticalAlign=top;html=1;" vertex="1" parent="1">
          <mxGeometry x="-100" y="380" width="30" height="60" as="geometry" />
        </mxCell>
        <mxCell id="8me5k0RuEljqpgm1LnXD-6" value="司机" style="shape=umlActor;verticalLabelPosition=bottom;verticalAlign=top;html=1;" vertex="1" parent="1">
          <mxGeometry x="600" y="360" width="30" height="60" as="geometry" />
        </mxCell>
        <mxCell id="8me5k0RuEljqpgm1LnXD-11" value="" style="html=1;points=[];perimeter=orthogonalPerimeter;" vertex="1" parent="1">
          <mxGeometry x="-240" y="520" width="10" height="430" as="geometry" />
        </mxCell>
        <mxCell id="8me5k0RuEljqpgm1LnXD-14" value="" style="html=1;points=[];perimeter=orthogonalPerimeter;" vertex="1" parent="1">
          <mxGeometry x="30" y="520" width="10" height="80" as="geometry" />
        </mxCell>
        <mxCell id="8me5k0RuEljqpgm1LnXD-15" value="提交砂石需求申请" style="html=1;verticalAlign=bottom;endArrow=block;entryX=0;entryY=0;rounded=0;" edge="1" target="8me5k0RuEljqpgm1LnXD-14" parent="1" source="8me5k0RuEljqpgm1LnXD-11">
          <mxGeometry relative="1" as="geometry">
            <mxPoint x="-40" y="520" as="sourcePoint" />
          </mxGeometry>
        </mxCell>
        <mxCell id="8me5k0RuEljqpgm1LnXD-17" value="" style="html=1;points=[];perimeter=orthogonalPerimeter;" vertex="1" parent="1">
          <mxGeometry x="320" y="520" width="10" height="80" as="geometry" />
        </mxCell>
      </root>
    </mxGraphModel>
  </diagram>
</mxfile>
